<?xml version="1.0" encoding="UTF-8"?>
<svg id="Layer_1" xmlns="http://www.w3.org/2000/svg" version="1.1" viewBox="0 0 215 65">
  <!-- Generator: Adobe Illustrator 29.8.0, SVG Export Plug-In . SVG Version: 2.1.1 Build 160)  -->
  <defs>
    <style>
      .st0 {
        fill-rule: evenodd;
      }

      .st0, .st1 {
        fill: #1e429a;
      }

      .st2 {
        fill: #fff;
      }

      .st3 {
        fill: #00adee;
      }
    </style>
  </defs>
  <rect class="st3" x="11.15" y="51.08" width="192.79" height="10.87"/>
  <g>
    <path class="st2" d="M21.63,58.34v-1.31s0-.08-.03-.11l-1.27-2.24h.78c.3.57.72,1.37.9,1.75.16-.36.61-1.19.91-1.75h.72l-1.3,2.24s-.03.04-.03.11v1.32h-.69Z"/>
    <path class="st2" d="M29.35,56.5c0,1.02-.6,1.9-1.77,1.9s-1.73-.84-1.73-1.89.65-1.89,1.78-1.89c1.06,0,1.73.76,1.73,1.87ZM26.57,56.5c0,.74.35,1.34,1.04,1.34.75,0,1.03-.63,1.03-1.33s-.32-1.31-1.04-1.31-1.03.57-1.03,1.3Z"/>
    <path class="st2" d="M32.84,54.68v2.19c0,.76.4.98.82.98.49,0,.81-.25.81-.98v-2.19h.69v2.16c0,1.23-.71,1.56-1.51,1.56s-1.5-.35-1.5-1.54v-2.18h.69Z"/>
    <path class="st2" d="M38.83,56.83v1.52h-.67v-3.66h1.55c.78,0,1.2.43,1.2,1,0,.49-.27.76-.56.87.22.07.49.27.49.92v.17c0,.25,0,.54.05.71h-.66c-.07-.16-.07-.44-.07-.81v-.06c0-.44-.12-.64-.73-.64h-.6ZM38.83,56.27h.71c.48,0,.67-.18.67-.52s-.22-.51-.64-.51h-.74v1.04Z"/>
    <path class="st2" d="M47.16,54.68h1.47c.76,0,1.27.42,1.27,1.11,0,.77-.57,1.14-1.29,1.14h-.76v1.42h-.69v-3.66ZM47.85,56.37h.69c.41,0,.67-.18.67-.57s-.28-.57-.65-.57h-.71v1.14Z"/>
    <path class="st2" d="M52.95,57.41l-.32.93h-.68l1.27-3.66h.86l1.32,3.66h-.72l-.34-.93h-1.38ZM54.18,56.84c-.29-.84-.47-1.34-.55-1.65h0c-.09.34-.28.93-.52,1.65h1.07Z"/>
    <path class="st2" d="M58.69,56.83v1.52h-.67v-3.66h1.55c.78,0,1.2.43,1.2,1,0,.49-.27.76-.56.87.22.07.49.27.49.92v.17c0,.25,0,.54.05.71h-.66c-.07-.16-.07-.44-.07-.81v-.06c0-.44-.12-.64-.73-.64h-.6ZM58.69,56.27h.71c.48,0,.67-.18.67-.52s-.22-.51-.64-.51h-.74v1.04Z"/>
    <path class="st2" d="M64.41,55.25h-1.14v-.57h2.96v.57h-1.14v3.09h-.69v-3.09Z"/>
    <path class="st2" d="M68.85,58.34v-3.66h.87c.48.83,1.43,2.43,1.61,2.83h0c-.04-.41-.04-1.03-.04-1.63v-1.2h.63v3.66h-.82c-.42-.74-1.45-2.54-1.65-2.95h0c.03.35.03,1.06.03,1.72v1.24h-.63Z"/>
    <path class="st2" d="M77.41,56.72h-1.78v1.06h1.96l-.08.57h-2.54v-3.66h2.53v.57h-1.86v.9h1.78v.57Z"/>
    <path class="st2" d="M80.98,56.83v1.52h-.67v-3.66h1.55c.78,0,1.2.43,1.2,1,0,.49-.27.76-.56.87.22.07.49.27.49.92v.17c0,.25,0,.54.05.71h-.66c-.07-.16-.07-.44-.07-.81v-.06c0-.44-.12-.64-.73-.64h-.6ZM80.98,56.27h.71c.48,0,.67-.18.67-.52s-.22-.51-.64-.51h-.74v1.04Z"/>
    <path class="st2" d="M89.32,54.68h2.49v.57h-1.82v1h1.7v.57h-1.7v1.53h-.67v-3.66Z"/>
    <path class="st2" d="M97.89,56.5c0,1.02-.6,1.9-1.77,1.9s-1.73-.84-1.73-1.89.65-1.89,1.78-1.89c1.06,0,1.73.76,1.73,1.87ZM95.1,56.5c0,.74.35,1.34,1.04,1.34.75,0,1.03-.63,1.03-1.33s-.32-1.31-1.04-1.31-1.03.57-1.03,1.3Z"/>
    <path class="st2" d="M101.4,56.83v1.52h-.67v-3.66h1.55c.78,0,1.2.43,1.2,1,0,.49-.27.76-.56.87.22.07.49.27.49.92v.17c0,.25,0,.54.05.71h-.66c-.07-.16-.07-.44-.07-.81v-.06c0-.44-.12-.64-.73-.64h-.6ZM101.4,56.27h.71c.48,0,.67-.18.67-.52s-.22-.51-.64-.51h-.74v1.04Z"/>
    <path class="st2" d="M109.73,54.68h1.4c1.05,0,1.75.7,1.75,1.79s-.68,1.88-1.78,1.88h-1.38v-3.66ZM110.42,57.78h.65c.76,0,1.1-.56,1.1-1.31,0-.64-.32-1.23-1.1-1.23h-.66v2.54Z"/>
    <path class="st2" d="M116.41,54.68v3.66h-.69v-3.66h.69Z"/>
    <path class="st2" d="M122.55,58.34h-.51c-.03-.1-.05-.24-.06-.41-.19.27-.53.46-1.09.46-1.06,0-1.64-.8-1.64-1.85,0-1.1.63-1.93,1.77-1.93.91,0,1.46.51,1.55,1.14h-.69c-.09-.3-.32-.6-.88-.6-.79,0-1.04.65-1.04,1.35s.28,1.32,1.04,1.32.88-.5.88-.92v-.04h-.88v-.57h1.55v2.03Z"/>
    <path class="st2" d="M126.18,54.68v3.66h-.69v-3.66h.69Z"/>
    <path class="st2" d="M129.99,55.25h-1.14v-.57h2.96v.57h-1.14v3.09h-.69v-3.09Z"/>
    <path class="st2" d="M134.65,57.41l-.32.93h-.68l1.27-3.66h.86l1.32,3.66h-.72l-.34-.93h-1.38ZM135.88,56.84c-.29-.84-.47-1.34-.55-1.65h0c-.09.34-.28.93-.52,1.65h1.07Z"/>
    <path class="st2" d="M139.72,54.68h.69v3.09h1.86l-.08.57h-2.46v-3.66Z"/>
    <path class="st2" d="M150.77,56.72h-1.78v1.06h1.96l-.08.57h-2.54v-3.66h2.53v.57h-1.86v.9h1.78v.57Z"/>
    <path class="st2" d="M154.69,58.34l-1.31-3.66h.74l.58,1.74c.17.52.32.99.4,1.35h.01c.08-.33.24-.82.42-1.34l.61-1.75h.7l-1.35,3.66h-.81Z"/>
    <path class="st2" d="M162.71,56.5c0,1.02-.6,1.9-1.77,1.9s-1.73-.84-1.73-1.89.65-1.89,1.78-1.89c1.06,0,1.73.76,1.73,1.87ZM159.92,56.5c0,.74.35,1.34,1.04,1.34.75,0,1.03-.63,1.03-1.33s-.32-1.31-1.04-1.31-1.03.57-1.03,1.3Z"/>
    <path class="st2" d="M165.54,54.68h.69v3.09h1.86l-.08.57h-2.46v-3.66Z"/>
    <path class="st2" d="M171.28,54.68v2.19c0,.76.4.98.82.98.49,0,.81-.25.81-.98v-2.19h.69v2.16c0,1.23-.71,1.56-1.51,1.56s-1.5-.35-1.5-1.54v-2.18h.69Z"/>
    <path class="st2" d="M177.39,55.25h-1.14v-.57h2.96v.57h-1.14v3.09h-.69v-3.09Z"/>
    <path class="st2" d="M182.52,54.68v3.66h-.69v-3.66h.69Z"/>
    <path class="st2" d="M188.85,56.5c0,1.02-.6,1.9-1.77,1.9s-1.73-.84-1.73-1.89.65-1.89,1.78-1.89c1.06,0,1.73.76,1.73,1.87ZM186.06,56.5c0,.74.35,1.34,1.04,1.34.75,0,1.03-.63,1.03-1.33s-.32-1.31-1.04-1.31-1.03.57-1.03,1.3Z"/>
    <path class="st2" d="M191.68,58.34v-3.66h.87c.48.83,1.43,2.43,1.61,2.83h0c-.04-.41-.04-1.03-.04-1.63v-1.2h.63v3.66h-.82c-.42-.74-1.45-2.54-1.65-2.95h0c.03.35.03,1.06.03,1.72v1.24h-.63Z"/>
  </g>
  <g>
    <path class="st1" d="M38.73,39.6c.13,0,.2.06.2.19v.84c0,.13-.07.2-.2.2h-2.7v4.59c0,.13-.06.19-.19.19h-.94c-.13,0-.19-.06-.19-.19v-4.59h-2.7c-.13,0-.2-.07-.2-.2v-.84c0-.13.07-.19.2-.19h6.71Z"/>
    <path class="st1" d="M49.93,39.6c.13,0,.2.06.2.19v.82c0,.13-.07.19-.2.19h-3.75c-.22,0-.41.02-.55.06-.15.04-.26.1-.35.19s-.15.21-.18.36c-.03.15-.05.34-.05.56v.09h4.85c.13,0,.19.06.19.19v.68c0,.13-.06.19-.19.19h-4.85v.15c0,.22.02.41.05.56.03.15.1.27.18.36s.21.15.35.19.33.06.55.06h3.75c.13,0,.2.06.2.19v.82c0,.13-.07.19-.2.19h-3.78c-.44,0-.8-.04-1.11-.12-.3-.08-.55-.21-.74-.39-.19-.18-.33-.41-.42-.7s-.13-.64-.13-1.05v-1.48c0-.41.04-.76.13-1.05.09-.29.23-.52.42-.7.19-.18.44-.31.74-.4.3-.08.67-.12,1.11-.12h3.78Z"/>
    <path class="st1" d="M61.62,39.6c.13,0,.19.06.19.19v.84c0,.13-.06.2-.19.2h-3.82c-.22,0-.41.02-.55.06-.15.04-.26.1-.35.19-.09.09-.15.21-.18.36-.04.15-.06.34-.06.57v1.22c0,.23.02.42.06.57.04.15.1.27.18.36.09.09.2.15.35.19s.33.06.55.06h3.82c.13,0,.19.06.19.19v.84c0,.13-.06.19-.19.19h-3.87c-.44,0-.8-.04-1.11-.12-.3-.08-.55-.21-.74-.39-.19-.18-.33-.41-.42-.7s-.13-.64-.13-1.05v-1.48c0-.41.04-.76.13-1.05.09-.29.23-.52.42-.7.19-.18.44-.31.74-.4.3-.08.67-.12,1.11-.12h3.87Z"/>
    <path class="st1" d="M68.14,39.6c.13,0,.19.06.19.19v2.23h4.02v-2.23c0-.13.06-.19.19-.19h.93c.13,0,.2.06.2.19v5.63c0,.13-.07.19-.2.19h-.93c-.13,0-.19-.06-.19-.19v-2.28h-4.02v2.28c0,.13-.06.19-.19.19h-.93c-.13,0-.2-.06-.2-.19v-5.63c0-.13.07-.19.2-.19h.93Z"/>
    <path class="st1" d="M92.23,39.6c.13,0,.19.06.19.19v.82c0,.13-.06.19-.19.19h-4.3c-.17,0-.28.04-.35.13s-.1.2-.1.35v.29c0,.32.15.48.45.48h3.22c.5,0,.87.13,1.12.38.25.25.38.62.38,1.09v.69c0,.42-.12.76-.37,1.01-.25.26-.63.39-1.15.39h-4.76c-.13,0-.2-.06-.2-.19v-.82c0-.13.07-.19.2-.19h4.51c.17,0,.28-.04.35-.13.07-.09.1-.2.1-.35v-.35c0-.32-.15-.48-.45-.48h-3.22c-.5,0-.87-.13-1.12-.38-.25-.25-.38-.62-.38-1.09v-.63c0-.42.12-.76.37-1.01s.63-.39,1.15-.39h4.55Z"/>
    <path class="st1" d="M102.9,39.6c.43,0,.81.04,1.11.12.31.08.56.21.75.4.19.18.33.41.42.7.09.29.13.64.13,1.05v1.48c0,.41-.04.76-.13,1.05s-.22.52-.42.7c-.19.18-.44.31-.75.39-.31.08-.68.12-1.11.12h-2.65c-.44,0-.8-.04-1.11-.12-.3-.08-.55-.21-.74-.39-.19-.18-.33-.41-.42-.7s-.13-.64-.13-1.05v-1.48c0-.41.04-.76.13-1.05.09-.29.23-.52.42-.7.19-.18.44-.31.74-.4.3-.08.67-.12,1.11-.12h2.65ZM99.16,43.25c0,.22.02.41.06.56.04.15.1.27.18.36s.2.15.35.19c.15.04.33.06.55.06h2.55c.22,0,.41-.02.55-.06.15-.04.26-.1.35-.19s.15-.21.18-.36c.04-.15.06-.34.06-.56v-1.29c0-.22-.02-.41-.06-.56s-.1-.27-.18-.36-.2-.15-.35-.19c-.15-.04-.33-.06-.55-.06h-2.55c-.22,0-.41.02-.55.06-.15.04-.26.1-.35.19s-.15.21-.18.36-.06.34-.06.56v1.29Z"/>
    <path class="st1" d="M111.77,39.6c.13,0,.19.06.19.19v3.43c0,.23.02.42.06.57.04.15.1.27.18.36s.2.15.35.19c.15.04.33.06.55.06h3.48c.13,0,.19.06.19.19v.84c0,.13-.06.19-.19.19h-3.53c-.44,0-.8-.04-1.11-.12-.3-.08-.55-.21-.74-.39-.19-.18-.33-.41-.42-.7s-.13-.64-.13-1.05v-3.55c0-.13.07-.19.2-.19h.93Z"/>
    <path class="st1" d="M122.82,39.6c.13,0,.19.06.19.19v3.43c0,.23.02.42.06.57.04.15.1.27.18.36s.2.15.35.19c.15.04.33.06.55.06h2.38c.22,0,.41-.02.55-.06.15-.04.26-.1.35-.19.09-.09.15-.21.18-.36.03-.15.05-.34.05-.57v-3.43c0-.13.06-.19.19-.19h.94c.13,0,.19.06.19.19v3.55c0,.41-.04.76-.13,1.05-.09.29-.22.52-.42.7-.19.18-.44.31-.75.39-.31.08-.68.12-1.11.12h-2.47c-.44,0-.8-.04-1.11-.12-.3-.08-.55-.21-.74-.39-.19-.18-.33-.41-.42-.7s-.13-.64-.13-1.05v-3.55c0-.13.07-.19.2-.19h.93Z"/>
    <path class="st1" d="M140.93,39.6c.13,0,.2.06.2.19v.84c0,.13-.07.2-.2.2h-2.7v4.59c0,.13-.06.19-.19.19h-.94c-.13,0-.19-.06-.19-.19v-4.59h-2.7c-.13,0-.2-.07-.2-.2v-.84c0-.13.07-.19.2-.19h6.71Z"/>
    <path class="st1" d="M147.31,39.6c.13,0,.19.06.19.19v5.63c0,.13-.06.19-.19.19h-.93c-.13,0-.2-.06-.2-.19v-5.63c0-.13.07-.19.2-.19h.93Z"/>
    <path class="st1" d="M157.92,39.6c.43,0,.81.04,1.11.12.31.08.56.21.75.4.19.18.33.41.42.7.09.29.13.64.13,1.05v1.48c0,.41-.04.76-.13,1.05s-.22.52-.42.7c-.19.18-.44.31-.75.39-.31.08-.68.12-1.11.12h-2.65c-.44,0-.8-.04-1.11-.12-.3-.08-.55-.21-.74-.39-.19-.18-.33-.41-.42-.7s-.13-.64-.13-1.05v-1.48c0-.41.04-.76.13-1.05.09-.29.23-.52.42-.7.19-.18.44-.31.74-.4.3-.08.67-.12,1.11-.12h2.65ZM154.18,43.25c0,.22.02.41.06.56.04.15.1.27.18.36s.2.15.35.19c.15.04.33.06.55.06h2.55c.22,0,.41-.02.55-.06.15-.04.26-.1.35-.19s.15-.21.18-.36c.04-.15.06-.34.06-.56v-1.29c0-.22-.02-.41-.06-.56s-.1-.27-.18-.36-.2-.15-.35-.19c-.15-.04-.33-.06-.55-.06h-2.55c-.22,0-.41.02-.55.06-.15.04-.26.1-.35.19s-.15.21-.18.36-.06.34-.06.56v1.29Z"/>
    <path class="st1" d="M167.21,39.6c.14,0,.25,0,.34.02.09.01.17.04.24.07.07.04.13.09.2.15.06.07.13.15.21.26l3.19,4.19s.06.06.11.06h.08s.07-.03.07-.09v-4.48c0-.13.06-.19.19-.19h.9c.13,0,.19.06.19.19v4.93c0,.35-.06.59-.19.71-.13.12-.32.18-.58.18h-.74c-.13,0-.24,0-.33-.02-.09-.01-.17-.03-.24-.07-.07-.03-.14-.08-.2-.15-.07-.07-.14-.16-.23-.27l-3.2-4.19s-.07-.06-.11-.06h-.08s-.07.03-.07.09v4.48c0,.13-.06.19-.19.19h-.9c-.13,0-.2-.06-.2-.19v-4.93c0-.35.06-.59.19-.71.13-.12.32-.18.58-.18h.76Z"/>
    <path class="st1" d="M184.34,39.6c.13,0,.19.06.19.19v.82c0,.13-.06.19-.19.19h-4.3c-.17,0-.28.04-.35.13-.07.09-.1.2-.1.35v.29c0,.32.15.48.45.48h3.22c.5,0,.87.13,1.12.38.25.25.38.62.38,1.09v.69c0,.42-.12.76-.37,1.01-.25.26-.63.39-1.15.39h-4.76c-.13,0-.2-.06-.2-.19v-.82c0-.13.07-.19.2-.19h4.51c.17,0,.28-.04.35-.13.07-.09.1-.2.1-.35v-.35c0-.32-.15-.48-.45-.48h-3.22c-.5,0-.87-.13-1.12-.38-.25-.25-.38-.62-.38-1.09v-.63c0-.42.12-.76.37-1.01.25-.26.63-.39,1.15-.39h4.55Z"/>
  </g>
  <path class="st0" d="M96.33,21.23c0,1.81.74,3.46,1.94,4.66,1.2,1.2,2.85,1.94,4.66,1.94s3.46-.74,4.66-1.94c1.2-1.2,1.94-2.85,1.94-4.66h.99c0,2.09-.85,3.98-2.23,5.36-1.37,1.37-3.27,2.23-5.36,2.23s-3.98-.85-5.36-2.23c-1.37-1.37-2.23-3.27-2.23-5.36h.99ZM111.57,9.2l-1.05,1.05v6.52l1.05,1.05c.25.25.25.66,0,.92l-1.09,1.09c-.25.25-.66.25-.92,0l-1.09-1.09c-.25-.25-.25-.66,0-.92l1.05-1.05v-6.52l-1.05-1.05c-.25-.25-.25-.66,0-.92l1.09-1.09c.25-.25.66-.25.92,0l1.09,1.09c.25.25.25.66,0,.92ZM97.39,9.2l-1.05,1.05v6.52l1.05,1.05c.25.25.25.66,0,.92l-1.09,1.09c-.25.25-.66.25-.92,0l-1.09-1.09c-.25-.25-.25-.66,0-.92l1.05-1.05v-6.52l-1.05-1.05c-.25-.25-.25-.66,0-.92l1.09-1.09c.25-.25.66-.25.92,0l1.09,1.09c.25.25.25.66,0,.92ZM107.62,11.47l-1.05,1.05v8.71c0,1-.41,1.91-1.07,2.57-.66.66-1.57,1.07-2.57,1.07s-1.91-.41-2.57-1.07c-.66-.66-1.07-1.57-1.07-2.57v-8.71l-1.05-1.05c-.25-.25-.25-.66,0-.92l1.09-1.09c.25-.25.66-.25.91,0l1.09,1.09c.25.25.25.66,0,.92l-1.05,1.05v8.71c0,.73.3,1.39.78,1.87.48.48,1.14.78,1.87.78s1.39-.3,1.87-.78c.48-.48.78-1.15.78-1.87v-8.71l-1.05-1.05c-.25-.25-.25-.66,0-.92l1.09-1.09c.25-.25.66-.25.91,0l1.09,1.09c.25.25.25.66,0,.92ZM114.46,5.36v15.87c0,3.17-1.3,6.06-3.38,8.14-2.09,2.09-4.97,3.38-8.14,3.38s-6.06-1.3-8.14-3.38c-2.09-2.09-3.38-4.97-3.38-8.14V5.36l-1.05-1.05c-.25-.25-.25-.66,0-.92l1.09-1.09c.25-.25.66-.25.91,0l1.09,1.09c.25.25.25.66,0,.92l-1.05,1.05v15.87c0,2.9,1.18,5.54,3.09,7.45,1.91,1.91,4.55,3.09,7.45,3.09s5.54-1.18,7.45-3.09c1.91-1.91,3.09-4.55,3.09-7.45V5.36l-1.05-1.05c-.25-.25-.25-.66,0-.92l1.09-1.09c.25-.25.66-.25.92,0l1.09,1.09c.25.25.25.66,0,.92l-1.05,1.05ZM87.76,9.79l2.53,22.94h-9.31l-.2-.25-.62-6.75-5.01,4.16-5.04-4.15-.82,7h-9.31l2.39-22.95,12.66,9.68,12.74-9.68ZM137.23,20.41l5.84-9.43h-9.76l-5.89,9.68v-9.68h-9.98v21.6h9.98v-8.49l.94,2.56c3.02,6.53,11.32,7.65,17.12,5.93l.08-6.94-.15-.1c-3.26.81-9.73-.94-8.18-5.13ZM164.53,32.58v-7.3h-6.41v7.3h-9.83V10.98h9.83v7h6.41v-7h9.83v21.6M57.96,10.98h-9.54v12.14c0,.98-.92,1.92-1.9,1.97-.76.04-1.97-.76-1.97-1.53v-12.59h-9.83v13.78c0,4.9,5.42,8.07,9.76,8.42,7.21.57,13.04-1.86,13.49-9.75.23-4.07-.18-8.36,0-12.45ZM25.55,15.2c1.46-1.2,4.22.75,5.41,1.7l2.06-2.17c-2.84-4.55-7.7-5.9-12.85-5.38-4.94.5-9.08,4.36-7.23,9.62.98,2.77,3.33,3.79,5.31,5.55.69.61,1.77,1.65.85,2.71-1.44,1.66-4.93-.05-6.78-3.42l-1.95,1.75c.25.34,1.49,2.17,2.3,3.11,1.6,1.84,3.16,3.03,5.5,3.85,5.48,1.93,14.95.27,14.43-7.29-.2-2.89-1.85-4.61-4.05-6.2-.88-.64-4.72-2.42-3.01-3.82ZM176.61,32.58l14.08-24.14,14.08,24.14h-9.12l-1.22-1.91-7.73-.04-1.34,1.95M192.14,26.47l-1.42-2.68c-.24-.04-.3.19-.4.34-.47.7-.87,1.61-1.31,2.34h3.13Z"/>
</svg>